<svg xmlns="http://www.w3.org/2000/svg" width="58" height="58" viewBox="0 0 58 58">
  <g id="Group_86" data-name="Group 86" transform="translate(-339 -47)">
    <rect id="Rectangle_13" data-name="Rectangle 13" width="58" height="58" rx="15" transform="translate(339 47)" fill="#d02918"/>
    <g id="girl" transform="translate(326.566 50.364)">
      <path id="Path_35431" data-name="Path 35431" d="M116.476,126.386l-.18-.615a.621.621,0,0,0-.674-.442l-.628-4.71a4.71,4.71,0,0,0-2.562-3.59l-2.029-1.015a.6.6,0,0,0-.8.284l-4.056-1.492a1.884,1.884,0,0,1-1.288-1.787V109.98l4.058-1.691a5.652,5.652,0,0,0,3.478-5.217v-.942a2.826,2.826,0,0,0,0-5.652V94.594c0-2.6-2.109-6.594-4.71-6.594H90.125c-2.6,0-4.71,3.993-4.71,6.594v1.884a2.826,2.826,0,1,0,0,5.652v.942a5.652,5.652,0,0,0,3.478,5.217l4.058,1.691v3.038a1.884,1.884,0,0,1-1.288,1.787l-3.976,1.463a.591.591,0,0,0-.786-.257l-1.85.925a4.81,4.81,0,0,0-2.744,3.681l-.628,4.71a.621.621,0,0,0-.674.442l-.18.615a.622.622,0,0,0,.422.771l1.342.392v2.842a1.884,1.884,0,0,0,1.884,1.884h28.26a1.884,1.884,0,0,0,1.884-1.884v-2.815l1.436-.419A.622.622,0,0,0,116.476,126.386Z" transform="translate(-57.169 -77.638)" fill="#ffd7a3"/>
      <path id="Path_35432" data-name="Path 35432" d="M188.465,274h-11.3v3.117a1.883,1.883,0,0,1-.913,1.613A12.793,12.793,0,0,0,188.465,274Z" transform="translate(-141.379 -241.733)" fill="#fdc88e"/>
      <g id="Group_59" data-name="Group 59" transform="translate(24.371 38.311)">
        <path id="Path_35433" data-name="Path 35433" d="M121.294,335.672l-.752-5.643a4.71,4.71,0,0,0-2.562-3.59l-2.029-1.015a.6.6,0,0,0-.846.4,11.306,11.306,0,0,1-21.815,0,.6.6,0,0,0-.841-.394l-1.85.925a4.81,4.81,0,0,0-2.744,3.681l-.767,5.75c2.489.857,6.749,2.138,6.749,2.138v3.768H114.56v-3.768Z" transform="translate(-87.087 -325.36)" fill="#8db9e2"/>
      </g>
      <g id="Group_60" data-name="Group 60" transform="translate(24.391 41.581)">
        <path id="Path_35434" data-name="Path 35434" d="M93.962,362.125a5.642,5.642,0,0,0-1.107-3.1l-4.422-5.9a4.59,4.59,0,0,0-.429,1.4l-.747,5.6Z" transform="translate(-87.257 -353.125)" fill="#6aa2de"/>
      </g>
      <g id="Group_61" data-name="Group 61" transform="translate(23.63 47.685)">
        <path id="Path_35435" data-name="Path 35435" d="M80.824,406.027a.621.621,0,0,0,.422.771l7.041,2.054v-.7a5.631,5.631,0,0,0-.172-1.309l-6.342-1.85a.621.621,0,0,0-.771.422Z" transform="translate(-80.799 -404.965)" fill="#4e87bb"/>
      </g>
      <g id="Group_62" data-name="Group 62" transform="translate(51.867 41.581)">
        <path id="Path_35436" data-name="Path 35436" d="M320.6,362.125a5.641,5.641,0,0,1,1.107-3.1l4.422-5.9a4.589,4.589,0,0,1,.429,1.4l.747,5.6Z" transform="translate(-320.598 -353.125)" fill="#6aa2de"/>
      </g>
      <g id="Group_63" data-name="Group 63" transform="translate(51.843 47.685)">
        <path id="Path_35437" data-name="Path 35437" d="M327.864,406.027a.621.621,0,0,1-.422.771l-7.042,2.054v-.7a5.633,5.633,0,0,1,.172-1.309l6.342-1.85a.621.621,0,0,1,.771.422Z" transform="translate(-320.4 -404.965)" fill="#4e87bb"/>
      </g>
      <g id="Group_64" data-name="Group 64" transform="translate(16 16.956)">
        <path id="Path_35438" data-name="Path 35438" d="M26.362,144c-2.826,0-8.478,1.06-8.478,9.42A128.246,128.246,0,0,1,16,172.26s9.42-1,9.42-12.246c0-10.48,1.884-12.246,1.884-12.246Z" transform="translate(-16 -144)" fill="#9d6e48"/>
      </g>
      <g id="Group_65" data-name="Group 65" transform="translate(16 17.898)">
        <path id="Path_35439" data-name="Path 35439" d="M25.42,167.072c0-10.48,1.884-12.246,1.884-12.246L25.42,152c-1.089.147-5.258.177-4.71,7.536.55,7.379,3.3,14.837-4.71,19.782C16,179.318,25.42,178.32,25.42,167.072Z" transform="translate(-16 -152)" fill="#8d5f3d"/>
      </g>
      <g id="Group_66" data-name="Group 66" transform="translate(24.478 16.014)">
        <path id="Path_35440" data-name="Path 35440" d="M91,139.852l-1.172-3.231a.942.942,0,1,0-1.771.643l1.172,3.231A.942.942,0,0,0,91,139.852Z" transform="translate(-88 -136)" fill="#6aa2de"/>
      </g>
      <g id="Group_67" data-name="Group 67" transform="translate(55.564 16.956)">
        <path id="Path_35441" data-name="Path 35441" d="M352.942,144c2.826,0,8.478,1.06,8.478,9.42a128.245,128.245,0,0,0,1.884,18.84s-9.42-1-9.42-12.246c0-10.48-1.884-12.246-1.884-12.246Z" transform="translate(-352 -144)" fill="#9d6e48"/>
      </g>
      <g id="Group_68" data-name="Group 68" transform="translate(55.564 17.898)">
        <path id="Path_35442" data-name="Path 35442" d="M353.884,167.072c0-10.48-1.884-12.246-1.884-12.246L353.884,152c1.089.147,5.258.177,4.71,7.536-.55,7.379-3.3,14.837,4.71,19.782C363.3,179.318,353.884,178.32,353.884,167.072Z" transform="translate(-352 -152)" fill="#8d5f3d"/>
      </g>
      <g id="Group_69" data-name="Group 69" transform="translate(55.334 16.014)">
        <path id="Path_35443" data-name="Path 35443" d="M350.1,139.852l1.172-3.231a.942.942,0,1,1,1.771.643l-1.172,3.231a.942.942,0,1,1-1.771-.643Z" transform="translate(-350.043 -136)" fill="#6aa2de"/>
      </g>
      <path id="Path_35444" data-name="Path 35444" d="M125.2,96.478V94.594c0-2.6-2.109-6.594-4.71-6.594H103.536c-2.6,0-4.71,3.993-4.71,6.594v1.884a2.826,2.826,0,0,0,0,5.652v.942a5.652,5.652,0,0,0,3.478,5.217l6.087,2.536a9.419,9.419,0,0,0,3.623.725h0a9.421,9.421,0,0,0,3.623-.725l6.087-2.536a5.652,5.652,0,0,0,3.478-5.217v-.942a2.826,2.826,0,1,0,0-5.652Z" transform="translate(-70.58 -77.638)" fill="#ffe1b2"/>
      <g id="Group_70" data-name="Group 70" transform="translate(33.898 19.782)">
        <path id="Path_35445" data-name="Path 35445" d="M168.942,170.826h0a.945.945,0,0,1-.942-.942v-.942a.945.945,0,0,1,.942-.942h0a.945.945,0,0,1,.942.942v.942A.945.945,0,0,1,168.942,170.826Z" transform="translate(-168 -168)" fill="#623f33"/>
      </g>
      <g id="Group_71" data-name="Group 71" transform="translate(47.086 19.782)">
        <path id="Path_35446" data-name="Path 35446" d="M280.942,170.826h0a.945.945,0,0,1-.942-.942v-.942a.945.945,0,0,1,.942-.942h0a.945.945,0,0,1,.942.942v.942A.945.945,0,0,1,280.942,170.826Z" transform="translate(-280 -168)" fill="#623f33"/>
      </g>
      <g id="Group_73" data-name="Group 73" transform="translate(36.724 26.376)">
        <g id="Group_72" data-name="Group 72" transform="translate(0)">
          <path id="Path_35447" data-name="Path 35447" d="M196.709,226.85a7.846,7.846,0,0,1-4.3-1.131.942.942,0,0,1,1.06-1.557,6.919,6.919,0,0,0,6.476,0,.942.942,0,0,1,1.06,1.557A7.846,7.846,0,0,1,196.709,226.85Z" transform="translate(-191.999 -223.998)" fill="#e4b07b"/>
        </g>
      </g>
      <path id="Path_35448" data-name="Path 35448" d="M111.2,87c-.163,5.092-12.369,8.6-12.369,8.6a2.826,2.826,0,0,0,0,5.652v.942A5.652,5.652,0,0,0,102.3,107.4l6.087,2.536a9.433,9.433,0,0,0,.91.324,39.315,39.315,0,0,1-5.53-4.813,4.416,4.416,0,0,1-1.177-3.017V97.169c2.7-.941,10.265-4.033,10.362-9.112.007-.385,0-.737-.015-1.06Z" transform="translate(-70.58 -76.752)" fill="#ffd7a3"/>
      <path id="Path_35449" data-name="Path 35449" d="M116.661,0a10.169,10.169,0,0,0-4.71.942A10.169,10.169,0,0,0,107.241,0c-3.062,0-14.68,5.894-10.362,19.553,0,0,15.072-2.676,15.072-9.191,0,6.515,15.072,9.191,15.072,9.191C131.341,5.894,119.723,0,116.661,0Z" transform="translate(-70.517 0)" fill="#9d6e48"/>
      <g id="Group_74" data-name="Group 74" transform="translate(25.412)">
        <path id="Path_35450" data-name="Path 35450" d="M111.952.942h0A10.169,10.169,0,0,0,107.242,0C104.18,0,92.562,5.894,96.88,19.553c0,0,1.825-.325,4.2-1.021C98.421,6.284,109.03.952,111.952.942Z" transform="translate(-95.929)" fill="#8d5f3d"/>
      </g>
      <g id="Group_75" data-name="Group 75" transform="translate(40.216 51.97)">
        <circle id="Ellipse_54" data-name="Ellipse 54" cx="0.888" cy="0.888" r="0.888" transform="translate(0 0)" fill="#ff8c51"/>
      </g>
      <g id="Group_76" data-name="Group 76" transform="translate(33.108 51.97)">
        <circle id="Ellipse_55" data-name="Ellipse 55" cx="0.888" cy="0.888" r="0.888" transform="translate(0 0)" fill="#ff8c51"/>
      </g>
      <g id="Group_77" data-name="Group 77" transform="translate(48.211 51.97)">
        <circle id="Ellipse_56" data-name="Ellipse 56" cx="0.888" cy="0.888" r="0.888" transform="translate(0 0)" fill="#ff8c51"/>
      </g>
      <g id="Group_78" data-name="Group 78" transform="translate(44.658 51.97)">
        <circle id="Ellipse_57" data-name="Ellipse 57" cx="0.888" cy="0.888" r="0.888" transform="translate(0 0)" fill="#ffc84a"/>
      </g>
      <g id="Group_79" data-name="Group 79" transform="translate(36.662 51.97)">
        <circle id="Ellipse_58" data-name="Ellipse 58" cx="0.888" cy="0.888" r="0.888" transform="translate(0 0)" fill="#ffc84a"/>
      </g>
      <g id="Group_80" data-name="Group 80" transform="translate(41.993 49.305)">
        <ellipse id="Ellipse_59" data-name="Ellipse 59" cx="1.333" cy="0.888" rx="1.333" ry="0.888" transform="translate(0 0)" fill="#ffc84a"/>
      </g>
      <g id="Group_81" data-name="Group 81" transform="translate(34.885 49.305)">
        <circle id="Ellipse_60" data-name="Ellipse 60" cx="0.888" cy="0.888" r="0.888" transform="translate(0 0)" fill="#ffc84a"/>
      </g>
      <g id="Group_82" data-name="Group 82" transform="translate(49.988 49.305)">
        <circle id="Ellipse_61" data-name="Ellipse 61" cx="0.888" cy="0.888" r="0.888" transform="translate(0 0)" fill="#ffc84a"/>
      </g>
      <g id="Group_83" data-name="Group 83" transform="translate(31.332 49.305)">
        <circle id="Ellipse_62" data-name="Ellipse 62" cx="0.888" cy="0.888" r="0.888" transform="translate(0 0)" fill="#ff8c51"/>
      </g>
      <g id="Group_84" data-name="Group 84" transform="translate(46.435 49.305)">
        <circle id="Ellipse_63" data-name="Ellipse 63" cx="0.888" cy="0.888" r="0.888" transform="translate(0 0)" fill="#ff8c51"/>
      </g>
      <g id="Group_85" data-name="Group 85" transform="translate(38.439 49.305)">
        <circle id="Ellipse_64" data-name="Ellipse 64" cx="0.888" cy="0.888" r="0.888" transform="translate(0 0)" fill="#ff8c51"/>
      </g>
    </g>
  </g>
</svg>
